Disc Title:     Smallfoot (2018)
Disc Label:     Smallfoot.2018.1080p.BluRay.AVC.DTS-HD.MA.5.1-FGT
Disc Size:      44,821,468,871 bytes
Protection:     AACS
Extras:         BD-Java
BDInfo:         0.7.5.5

Notes:          

BDINFO HOME:
  Cinema Squid (old)
    http://www.cinemasquid.com/blu-ray/tools/bdinfo
  UniqProject GitHub (new)
   https://github.com/UniqProject/BDInfo

INCLUDES FORUMS REPORT FOR:
  AVS Forum Blu-ray Audio and Video Specifications Thread
    http://www.avsforum.com/avs-vb/showthread.php?t=1155731


********************
PLAYLIST: 00101.MPLS
********************

<--- BEGIN FORUMS PASTE --->
[code]
                                                                                                                Total   Video                                             
Title                                                           Codec   Length  Movie Size      Disc Size       Bitrate Bitrate Main Audio Track                          Secondary Audio Track
-----                                                           ------  ------- --------------  --------------  ------- ------- ------------------                        ---------------------
00101.MPLS                                                      AVC     1:36:20 17,346,459,648  44,821,468,871  24.01   22.06   DD AC3 5.1 640Kbps                        
[/code]

[code]

DISC INFO:

Disc Title:     Smallfoot (2018)
Disc Label:     Smallfoot.2018.1080p.BluRay.AVC.DTS-HD.MA.5.1-FGT
Disc Size:      44,821,468,871 bytes
Protection:     AACS
Extras:         BD-Java
BDInfo:         0.7.5.5

PLAYLIST REPORT:

Name:                   00101.MPLS
Length:                 1:36:20.816 (h:m:s.ms)
Size:                   17,346,459,648 bytes
Total Bitrate:          24.01 Mbps

VIDEO:

Codec                   Bitrate             Description     
-----                   -------             -----------     
MPEG-4 AVC Video        22059 kbps          1080p / 23.976 fps / 16:9 / High Profile 4.1

AUDIO:

Codec                           Language        Bitrate         Description     
-----                           --------        -------         -----------     
Dolby Digital Audio             English         640 kbps        5.1 / 48 kHz /   640 kbps / DN -31dB

SUBTITLES:

Codec                           Language        Bitrate         Description     
-----                           --------        -------         -----------     
Presentation Graphics           English         45.804 kbps                     
Presentation Graphics           French          39.746 kbps                     
Presentation Graphics           Spanish         44.725 kbps                     
Presentation Graphics           Portuguese      44.596 kbps                     

FILES:

Name            Time In         Length          Size            Total Bitrate   
----            -------         ------          ----            -------------   
00019.M2TS      0:00:00.000     1:36:20.816     17,346,459,648  24,006          

CHAPTERS:

Number          Time In         Length          Avg Video Rate  Max 1-Sec Rate  Max 1-Sec Time  Max 5-Sec Rate  Max 5-Sec Time  Max 10Sec Rate  Max 10Sec Time  Avg Frame Size  Max Frame Size  Max Frame Time  
------          -------         ------          --------------  --------------  --------------  --------------  --------------  --------------  --------------  --------------  --------------  --------------  
1               0:00:00.000     0:09:56.262     21,685 kbps     33,469 kbps     00:05:02.135    31,933 kbps     00:05:18.151    31,095 kbps     00:05:15.481    113,046 bytes   530,166 bytes   00:05:48.806    
2               0:09:56.262     0:11:40.032     20,479 kbps     32,488 kbps     00:20:54.878    30,134 kbps     00:20:51.583    29,561 kbps     00:20:48.872    106,766 bytes   424,481 bytes   00:21:11.728    
3               0:21:36.295     0:10:34.342     19,796 kbps     33,191 kbps     00:22:57.793    31,893 kbps     00:22:53.830    31,522 kbps     00:22:48.784    103,205 bytes   471,498 bytes   00:27:13.923    
4               0:32:10.637     0:06:22.965     23,185 kbps     32,579 kbps     00:32:45.672    30,719 kbps     00:32:40.041    28,811 kbps     00:32:11.137    120,876 bytes   458,554 bytes   00:32:39.165    
5               0:38:33.602     0:11:26.102     23,730 kbps     34,911 kbps     00:43:10.129    32,178 kbps     00:43:06.083    31,782 kbps     00:43:01.120    123,719 bytes   472,085 bytes   00:48:04.464    
6               0:49:59.705     0:05:37.462     21,524 kbps     32,950 kbps     00:51:42.307    30,909 kbps     00:51:42.557    28,846 kbps     00:55:27.157    112,215 bytes   461,238 bytes   00:51:50.273    
7               0:55:37.167     0:06:16.042     25,660 kbps     33,658 kbps     00:56:00.732    31,911 kbps     00:56:14.496    31,686 kbps     00:59:59.929    133,781 bytes   391,841 bytes   00:55:57.729    
8               1:01:53.209     0:10:11.068     22,827 kbps     34,052 kbps     01:05:20.708    31,849 kbps     01:05:16.871    31,455 kbps     01:05:12.533    119,008 bytes   445,708 bytes   01:03:35.728    
9               1:12:04.278     0:06:21.798     25,498 kbps     36,357 kbps     01:15:45.165    31,668 kbps     01:17:20.427    31,528 kbps     01:14:49.943    132,935 bytes   518,669 bytes   01:15:46.542    
10              1:18:26.076     0:07:50.720     25,341 kbps     35,524 kbps     01:24:18.970    31,766 kbps     01:18:29.496    31,548 kbps     01:18:27.577    132,117 bytes   434,042 bytes   01:24:08.543    
11              1:26:16.796     0:04:55.503     18,120 kbps     33,768 kbps     01:26:52.248    30,643 kbps     01:27:32.747    28,917 kbps     01:26:49.204    94,467 bytes    553,566 bytes   01:27:38.419    
12              1:31:12.300     0:05:08.516     15,098 kbps     21,053 kbps     01:33:12.628    20,520 kbps     01:33:12.628    20,208 kbps     01:33:10.960    78,723 bytes    506,328 bytes   01:36:14.727    

STREAM DIAGNOSTICS:

File            PID             Type            Codec           Language                Seconds                 Bitrate                 Bytes           Packets         
----            ---             ----            -----           --------                --------------          --------------          -------------   -----           
00019.M2TS      4113 (0x1011)   0x1B            AVC                                     5780.733                22,060                  15,940,062,160  86,711,466      
00019.M2TS      4352 (0x1100)   0x81            AC3             eng (English)           5780.733                640                     462,466,560     2,709,765       
00019.M2TS      4608 (0x1200)   0x90            PGS             eng (English)           5780.733                46                      33,098,189      191,841         
00019.M2TS      4609 (0x1201)   0x90            PGS             fra (French)            5780.733                40                      28,720,266      166,665         
00019.M2TS      4610 (0x1202)   0x90            PGS             spa (Spanish)           5780.733                45                      32,318,043      186,622         
00019.M2TS      4611 (0x1203)   0x90            PGS             por (Portuguese)        5780.733                45                      32,225,087      186,095         

[/code]
<---- END FORUMS PASTE ---->

QUICK SUMMARY:

Disc Title: Smallfoot (2018)
Disc Label: Smallfoot.2018.1080p.BluRay.AVC.DTS-HD.MA.5.1-FGT
Disc Size: 44,821,468,871 bytes
Protection: AACS
Playlist: 00101.MPLS
Size: 17,346,459,648 bytes
Length: 1:36:20.816
Total Bitrate: 24.01 Mbps
Video: MPEG-4 AVC Video / 22059 kbps / 1080p / 23.976 fps / 16:9 / High Profile 4.1
Audio: English / Dolby Digital Audio / 5.1 / 48 kHz /   640 kbps / DN -31dB
Subtitle: English / 45.804 kbps
Subtitle: French / 39.746 kbps
Subtitle: Spanish / 44.725 kbps
Subtitle: Portuguese / 44.596 kbps


********************
PLAYLIST: 00002.MPLS
********************

<--- BEGIN FORUMS PASTE --->
[code]
                                                                                                                Total   Video                                             
Title                                                           Codec   Length  Movie Size      Disc Size       Bitrate Bitrate Main Audio Track                          Secondary Audio Track
-----                                                           ------  ------- --------------  --------------  ------- ------- ------------------                        ---------------------
00002.MPLS                                                      AVC     1:36:17 22,426,245,120  44,821,468,871  31.05   22.34   DTS-HD Master 5.1 4179Kbps (48kHz/24-bit) DD AC3 5.1 640Kbps
[/code]

[code]

DISC INFO:

Disc Title:     Smallfoot (2018)
Disc Label:     Smallfoot.2018.1080p.BluRay.AVC.DTS-HD.MA.5.1-FGT
Disc Size:      44,821,468,871 bytes
Protection:     AACS
Extras:         BD-Java
BDInfo:         0.7.5.5

PLAYLIST REPORT:

Name:                   00002.MPLS
Length:                 1:36:17.772 (h:m:s.ms)
Size:                   22,426,245,120 bytes
Total Bitrate:          31.05 Mbps

VIDEO:

Codec                   Bitrate             Description     
-----                   -------             -----------     
MPEG-4 AVC Video        22340 kbps          1080p / 23.976 fps / 16:9 / High Profile 4.1

AUDIO:

Codec                           Language        Bitrate         Description     
-----                           --------        -------         -----------     
DTS-HD Master Audio             English         4179 kbps       5.1 / 48 kHz /  4179 kbps / 24-bit (DTS Core: 5.1 / 48 kHz /  1509 kbps / 24-bit)
Dolby Digital Audio             English         640 kbps        5.1 / 48 kHz /   640 kbps / DN -27dB
Dolby Digital Audio             French          640 kbps        5.1 / 48 kHz /   640 kbps / DN -27dB
Dolby Digital Audio             Spanish         640 kbps        5.1 / 48 kHz /   640 kbps / DN -27dB
Dolby Digital Audio             Portuguese      640 kbps        5.1 / 48 kHz /   640 kbps / DN -27dB

SUBTITLES:

Codec                           Language        Bitrate         Description     
-----                           --------        -------         -----------     
Presentation Graphics           English         53.074 kbps                     
Presentation Graphics           French          34.920 kbps                     
Presentation Graphics           Spanish         40.388 kbps                     
Presentation Graphics           Portuguese      40.169 kbps                     
Presentation Graphics           French          0.138 kbps                      

FILES:

Name            Time In         Length          Size            Total Bitrate   
----            -------         ------          ----            -------------   
00018.M2TS      0:00:00.000     1:36:17.772     22,426,245,120  31,052          

CHAPTERS:

Number          Time In         Length          Avg Video Rate  Max 1-Sec Rate  Max 1-Sec Time  Max 5-Sec Rate  Max 5-Sec Time  Max 10Sec Rate  Max 10Sec Time  Avg Frame Size  Max Frame Size  Max Frame Time  
------          -------         ------          --------------  --------------  --------------  --------------  --------------  --------------  --------------  --------------  --------------  --------------  
1               0:00:00.000     0:09:56.262     21,918 kbps     34,172 kbps     00:00:48.339    28,823 kbps     00:00:45.879    28,143 kbps     00:04:52.333    114,263 bytes   691,931 bytes   00:05:50.266    
2               0:09:56.262     0:11:40.032     21,204 kbps     31,889 kbps     00:20:49.998    26,636 kbps     00:11:04.330    24,810 kbps     00:20:48.914    110,546 bytes   633,922 bytes   00:15:51.075    
3               0:21:36.295     0:10:34.342     21,205 kbps     37,604 kbps     00:22:54.039    32,191 kbps     00:22:50.786    30,464 kbps     00:22:48.116    110,551 bytes   685,720 bytes   00:27:16.384    
4               0:32:10.637     0:06:22.965     22,233 kbps     39,544 kbps     00:32:45.421    29,700 kbps     00:32:42.126    27,110 kbps     00:32:38.414    115,912 bytes   596,581 bytes   00:32:39.791    
5               0:38:33.602     0:11:26.102     22,724 kbps     39,109 kbps     00:49:48.110    29,709 kbps     00:41:15.264    29,106 kbps     00:41:15.264    118,472 bytes   654,894 bytes   00:49:13.909    
6               0:49:59.705     0:05:37.462     21,756 kbps     35,056 kbps     00:51:42.307    26,320 kbps     00:50:10.173    25,403 kbps     00:50:38.410    113,427 bytes   633,398 bytes   00:51:50.690    
7               0:55:37.167     0:06:16.042     23,509 kbps     39,072 kbps     00:58:37.805    30,156 kbps     00:58:51.402    28,675 kbps     00:58:47.774    122,564 bytes   581,209 bytes   00:55:58.229    
8               1:01:53.209     0:10:11.068     21,846 kbps     34,269 kbps     01:04:15.268    28,569 kbps     01:05:24.921    27,219 kbps     01:05:24.170    113,896 bytes   616,310 bytes   01:03:35.520    
9               1:12:04.278     0:06:21.798     23,678 kbps     43,108 kbps     01:16:15.696    32,851 kbps     01:16:13.986    29,541 kbps     01:16:13.902    123,447 bytes   621,491 bytes   01:15:46.917    
10              1:18:26.076     0:07:50.720     22,920 kbps     40,056 kbps     01:19:46.782    28,685 kbps     01:19:42.986    26,678 kbps     01:18:35.252    119,493 bytes   630,680 bytes   01:24:09.210    
11              1:26:16.796     0:04:55.503     28,129 kbps     44,753 kbps     01:27:59.524    34,755 kbps     01:27:59.190    32,834 kbps     01:30:50.736    146,653 bytes   769,703 bytes   01:31:12.300    
12              1:31:12.300     0:05:05.471     19,426 kbps     44,478 kbps     01:31:12.300    22,577 kbps     01:31:12.300    21,138 kbps     01:33:09.375    101,290 bytes   744,651 bytes   01:36:13.434    

STREAM DIAGNOSTICS:

File            PID             Type            Codec           Language                Seconds                 Bitrate                 Bytes           Packets         
----            ---             ----            -----           --------                --------------          --------------          -------------   -----           
00018.M2TS      4113 (0x1011)   0x1B            AVC                                     5777.689                22,340                  16,134,432,363  87,768,475      
00018.M2TS      4352 (0x1100)   0x86            DTS-HD MA       eng (English)           5777.689                4,179                   3,018,411,140   17,301,343      
00018.M2TS      4353 (0x1101)   0x81            AC3             eng (English)           5777.689                640                     462,223,360     2,708,340       
00018.M2TS      4354 (0x1102)   0x81            AC3             fra (French)            5777.689                640                     462,223,360     2,708,340       
00018.M2TS      4355 (0x1103)   0x81            AC3             spa (Spanish)           5777.689                640                     462,223,360     2,708,340       
00018.M2TS      4356 (0x1104)   0x81            AC3             por (Portuguese)        5777.689                640                     462,223,360     2,708,340       
00018.M2TS      4608 (0x1200)   0x90            PGS             eng (English)           5777.689                53                      38,331,486      221,876         
00018.M2TS      4609 (0x1201)   0x90            PGS             fra (French)            5777.689                35                      25,219,646      146,967         
00018.M2TS      4610 (0x1202)   0x90            PGS             spa (Spanish)           5777.689                40                      29,169,198      169,031         
00018.M2TS      4611 (0x1203)   0x90            PGS             por (Portuguese)        5777.689                40                      29,011,210      168,128         
00018.M2TS      4612 (0x1204)   0x90            PGS             fra (French)            5777.689                0                       99,748          590             

[/code]
<---- END FORUMS PASTE ---->

QUICK SUMMARY:

Disc Title: Smallfoot (2018)
Disc Label: Smallfoot.2018.1080p.BluRay.AVC.DTS-HD.MA.5.1-FGT
Disc Size: 44,821,468,871 bytes
Protection: AACS
Playlist: 00002.MPLS
Size: 22,426,245,120 bytes
Length: 1:36:17.772
Total Bitrate: 31.05 Mbps
Video: MPEG-4 AVC Video / 22340 kbps / 1080p / 23.976 fps / 16:9 / High Profile 4.1
Audio: English / DTS-HD Master Audio / 5.1 / 48 kHz /  4179 kbps / 24-bit (DTS Core: 5.1 / 48 kHz /  1509 kbps / 24-bit)
Audio: English / Dolby Digital Audio / 5.1 / 48 kHz /   640 kbps / DN -27dB
Audio: French / Dolby Digital Audio / 5.1 / 48 kHz /   640 kbps / DN -27dB
Audio: Spanish / Dolby Digital Audio / 5.1 / 48 kHz /   640 kbps / DN -27dB
Audio: Portuguese / Dolby Digital Audio / 5.1 / 48 kHz /   640 kbps / DN -27dB
Subtitle: English / 53.074 kbps
Subtitle: French / 34.920 kbps
Subtitle: Spanish / 40.388 kbps
Subtitle: Portuguese / 40.169 kbps
Subtitle: French / 0.138 kbps


********************
PLAYLIST: 00017.MPLS
********************

<--- BEGIN FORUMS PASTE --->
[code]
                                                                                                                Total   Video                                             
Title                                                           Codec   Length  Movie Size      Disc Size       Bitrate Bitrate Main Audio Track                          Secondary Audio Track
-----                                                           ------  ------- --------------  --------------  ------- ------- ------------------                        ---------------------
00017.MPLS                                                      AVC     1:36:17 22,426,245,120  44,821,468,871  31.05   22.34   DTS-HD Master 5.1 4179Kbps (48kHz/24-bit) DD AC3 5.1 640Kbps
[/code]

[code]

DISC INFO:

Disc Title:     Smallfoot (2018)
Disc Label:     Smallfoot.2018.1080p.BluRay.AVC.DTS-HD.MA.5.1-FGT
Disc Size:      44,821,468,871 bytes
Protection:     AACS
Extras:         BD-Java
BDInfo:         0.7.5.5

PLAYLIST REPORT:

Name:                   00017.MPLS
Length:                 1:36:17.772 (h:m:s.ms)
Size:                   22,426,245,120 bytes
Total Bitrate:          31.05 Mbps

VIDEO:

Codec                   Bitrate             Description     
-----                   -------             -----------     
MPEG-4 AVC Video        22340 kbps          1080p / 23.976 fps / 16:9 / High Profile 4.1

AUDIO:

Codec                           Language        Bitrate         Description     
-----                           --------        -------         -----------     
DTS-HD Master Audio             English         4179 kbps       5.1 / 48 kHz /  4179 kbps / 24-bit (DTS Core: 5.1 / 48 kHz /  1509 kbps / 24-bit)
Dolby Digital Audio             English         640 kbps        5.1 / 48 kHz /   640 kbps / DN -27dB
Dolby Digital Audio             French          640 kbps        5.1 / 48 kHz /   640 kbps / DN -27dB
Dolby Digital Audio             Spanish         640 kbps        5.1 / 48 kHz /   640 kbps / DN -27dB
Dolby Digital Audio             Portuguese      640 kbps        5.1 / 48 kHz /   640 kbps / DN -27dB

SUBTITLES:

Codec                           Language        Bitrate         Description     
-----                           --------        -------         -----------     
Presentation Graphics           English         53.074 kbps                     
Presentation Graphics           French          34.920 kbps                     
Presentation Graphics           Spanish         40.388 kbps                     
Presentation Graphics           Portuguese      40.169 kbps                     
Presentation Graphics           French          0.138 kbps                      

FILES:

Name            Time In         Length          Size            Total Bitrate   
----            -------         ------          ----            -------------   
00018.M2TS      0:00:00.000     1:36:17.772     22,426,245,120  31,052          

CHAPTERS:

Number          Time In         Length          Avg Video Rate  Max 1-Sec Rate  Max 1-Sec Time  Max 5-Sec Rate  Max 5-Sec Time  Max 10Sec Rate  Max 10Sec Time  Avg Frame Size  Max Frame Size  Max Frame Time  
------          -------         ------          --------------  --------------  --------------  --------------  --------------  --------------  --------------  --------------  --------------  --------------  
1               0:00:00.000     0:09:56.262     21,918 kbps     34,172 kbps     00:00:48.339    28,823 kbps     00:00:45.879    28,143 kbps     00:04:52.333    114,263 bytes   691,931 bytes   00:05:50.266    
2               0:09:56.262     0:11:40.032     21,204 kbps     31,889 kbps     00:20:49.998    26,636 kbps     00:11:04.330    24,810 kbps     00:20:48.914    110,546 bytes   633,922 bytes   00:15:51.075    
3               0:21:36.295     0:10:34.342     21,205 kbps     37,604 kbps     00:22:54.039    32,191 kbps     00:22:50.786    30,464 kbps     00:22:48.116    110,551 bytes   685,720 bytes   00:27:16.384    
4               0:32:10.637     0:06:22.965     22,233 kbps     39,544 kbps     00:32:45.421    29,700 kbps     00:32:42.126    27,110 kbps     00:32:38.414    115,912 bytes   596,581 bytes   00:32:39.791    
5               0:38:33.602     0:11:26.102     22,724 kbps     39,109 kbps     00:49:48.110    29,709 kbps     00:41:15.264    29,106 kbps     00:41:15.264    118,472 bytes   654,894 bytes   00:49:13.909    
6               0:49:59.705     0:05:37.462     21,756 kbps     35,056 kbps     00:51:42.307    26,320 kbps     00:50:10.173    25,403 kbps     00:50:38.410    113,427 bytes   633,398 bytes   00:51:50.690    
7               0:55:37.167     0:06:16.042     23,509 kbps     39,072 kbps     00:58:37.805    30,156 kbps     00:58:51.402    28,675 kbps     00:58:47.774    122,564 bytes   581,209 bytes   00:55:58.229    
8               1:01:53.209     0:10:11.068     21,846 kbps     34,269 kbps     01:04:15.268    28,569 kbps     01:05:24.921    27,219 kbps     01:05:24.170    113,896 bytes   616,310 bytes   01:03:35.520    
9               1:12:04.278     0:06:21.798     23,678 kbps     43,108 kbps     01:16:15.696    32,851 kbps     01:16:13.986    29,541 kbps     01:16:13.902    123,447 bytes   621,491 bytes   01:15:46.917    
10              1:18:26.076     0:07:50.720     22,920 kbps     40,056 kbps     01:19:46.782    28,685 kbps     01:19:42.986    26,678 kbps     01:18:35.252    119,493 bytes   630,680 bytes   01:24:09.210    
11              1:26:16.796     0:04:55.503     28,129 kbps     44,753 kbps     01:27:59.524    34,755 kbps     01:27:59.190    32,834 kbps     01:30:50.736    146,653 bytes   769,703 bytes   01:31:12.300    
12              1:31:12.300     0:05:05.471     19,426 kbps     44,478 kbps     01:31:12.300    22,577 kbps     01:31:12.300    21,138 kbps     01:33:09.375    101,290 bytes   744,651 bytes   01:36:13.434    

STREAM DIAGNOSTICS:

File            PID             Type            Codec           Language                Seconds                 Bitrate                 Bytes           Packets         
----            ---             ----            -----           --------                --------------          --------------          -------------   -----           
00018.M2TS      4113 (0x1011)   0x1B            AVC                                     5777.689                22,340                  16,134,432,363  87,768,475      
00018.M2TS      4352 (0x1100)   0x86            DTS-HD MA       eng (English)           5777.689                4,179                   3,018,411,140   17,301,343      
00018.M2TS      4353 (0x1101)   0x81            AC3             eng (English)           5777.689                640                     462,223,360     2,708,340       
00018.M2TS      4354 (0x1102)   0x81            AC3             fra (French)            5777.689                640                     462,223,360     2,708,340       
00018.M2TS      4355 (0x1103)   0x81            AC3             spa (Spanish)           5777.689                640                     462,223,360     2,708,340       
00018.M2TS      4356 (0x1104)   0x81            AC3             por (Portuguese)        5777.689                640                     462,223,360     2,708,340       
00018.M2TS      4608 (0x1200)   0x90            PGS             eng (English)           5777.689                53                      38,331,486      221,876         
00018.M2TS      4609 (0x1201)   0x90            PGS             fra (French)            5777.689                35                      25,219,646      146,967         
00018.M2TS      4610 (0x1202)   0x90            PGS             spa (Spanish)           5777.689                40                      29,169,198      169,031         
00018.M2TS      4611 (0x1203)   0x90            PGS             por (Portuguese)        5777.689                40                      29,011,210      168,128         
00018.M2TS      4612 (0x1204)   0x90            PGS             fra (French)            5777.689                0                       99,748          590             

[/code]
<---- END FORUMS PASTE ---->

QUICK SUMMARY:

Disc Title: Smallfoot (2018)
Disc Label: Smallfoot.2018.1080p.BluRay.AVC.DTS-HD.MA.5.1-FGT
Disc Size: 44,821,468,871 bytes
Protection: AACS
Playlist: 00017.MPLS
Size: 22,426,245,120 bytes
Length: 1:36:17.772
Total Bitrate: 31.05 Mbps
Video: MPEG-4 AVC Video / 22340 kbps / 1080p / 23.976 fps / 16:9 / High Profile 4.1
Audio: English / DTS-HD Master Audio / 5.1 / 48 kHz /  4179 kbps / 24-bit (DTS Core: 5.1 / 48 kHz /  1509 kbps / 24-bit)
Audio: English / Dolby Digital Audio / 5.1 / 48 kHz /   640 kbps / DN -27dB
Audio: French / Dolby Digital Audio / 5.1 / 48 kHz /   640 kbps / DN -27dB
Audio: Spanish / Dolby Digital Audio / 5.1 / 48 kHz /   640 kbps / DN -27dB
Audio: Portuguese / Dolby Digital Audio / 5.1 / 48 kHz /   640 kbps / DN -27dB
Subtitle: English / 53.074 kbps
Subtitle: French / 34.920 kbps
Subtitle: Spanish / 40.388 kbps
Subtitle: Portuguese / 40.169 kbps
Subtitle: French / 0.138 kbps

